# xmcd CD database file
#
# Track frame offsets:
#	150
#	16230
#	28453
#	47783
#	66951
#	87270
#	113330
#	135367
#
# Disc length: 2056 seconds
#
# Revision: 0
# Processed by: cddbd v1.5.1PL0 Copyright (c) Steve Scherf et al.
# Submitted via: CDex 1.51
#
DISCID=61080608
DTITLE=United State Of Electronica - Party People
DYEAR=2005
DGENRE=Dance
TTITLE0=Open Your Eyes
TTITLE1=Party People (Live)
TTITLE2=Climb the Walls (Umbrella of Love) (Live)
TTITLE3=There's Always Music (Live on KEXP)
TTITLE4=Vamos a la Casa (Bobby Karate Remix)
TTITLE5=Umbrella's of Love (RK47 mix)
TTITLE6=Open Your Eyes (Beauty School Remix)
TTITLE7=Emerald City (Karaoke mix)
EXTD=YEAR: 2005
EXTT0=
EXTT1=
EXTT2=
EXTT3=
EXTT4=
EXTT5=
EXTT6=
EXTT7=
PLAYORDER=
